<svg width="122" height="30" viewBox="0 0 122 30" fill="none" xmlns="http://www.w3.org/2000/svg">
<g clip-path="url(#clip0_6016_5162)">
<path d="M14.261 10.2914L11.4095 16.6672L17.4225 17.3446L14.261 10.2914ZM11.4095 16.6672L8.72322 22.6559H8L14.9016 7.24867H15.6248L22.5264 22.6559H19.7988L17.4225 17.3446L11.4095 16.6672Z" fill="white"/>
<path d="M25.2437 17.5381C25.2437 18.8283 25.5054 19.9178 26.0289 20.8066C26.5592 21.6955 27.341 22.208 28.3742 22.3441C28.505 22.3585 28.6359 22.3656 28.7668 22.3656C29.2627 22.3656 29.7655 22.2581 30.2752 22.0431C30.7849 21.8209 31.2567 21.4697 31.6907 20.9894L32.1556 21.4732C31.6597 21.9463 31.088 22.3191 30.4405 22.5914C29.7999 22.8638 29.1112 23 28.3742 23C27.3754 23 26.4628 22.7563 25.6363 22.2689C24.8166 21.7743 24.1623 21.1149 23.6732 20.2906C23.1842 19.4591 22.9397 18.5416 22.9397 17.5381C22.9397 16.5346 23.1842 15.6207 23.6732 14.7964C24.1623 13.9649 24.8166 13.3055 25.6363 12.8181C26.4628 12.3235 27.3754 12.0762 28.3742 12.0762C29.1112 12.0762 29.7999 12.2124 30.4405 12.4848C31.088 12.7572 31.6597 13.1335 32.1556 13.6137L31.6907 14.0975C31.2567 13.6101 30.7539 13.2446 30.1822 13.0009C29.7345 12.8073 29.2627 12.7106 28.7668 12.7106C28.6359 12.7106 28.505 12.7177 28.3742 12.7321C27.341 12.8683 26.5592 13.3808 26.0289 14.2696C25.5054 15.1584 25.2437 16.2479 25.2437 17.5381Z" fill="white"/>
<path d="M39.1605 12.7858C38.4993 12.7858 37.9345 13.0116 37.4661 13.4632C36.9977 13.9076 36.6878 14.4703 36.5362 15.1512V22.6559H34.2219V7.23792H36.5362V13.5922C37.163 12.7177 38.0378 12.2196 39.1605 12.0977C39.3327 12.0834 39.5014 12.0762 39.6667 12.0762C40.3004 12.0762 40.8721 12.1766 41.3818 12.3773C42.0293 12.6281 42.539 13.0403 42.9109 13.6137C43.2828 14.1871 43.4688 14.9326 43.4688 15.8501V22.6559H41.1545V15.8501C41.1545 15.5132 41.1373 15.162 41.1029 14.7964C41.0684 14.4237 40.9685 14.0796 40.8032 13.7642C40.631 13.4704 40.3969 13.2338 40.1007 13.0546C39.8045 12.8754 39.4911 12.7858 39.1605 12.7858Z" fill="white"/>
<path d="M45.8968 22.6559V12.431H48.2008V22.6559H45.8968ZM47.0539 7.23792C47.4396 7.23792 47.7668 7.38127 48.0354 7.66799C48.311 7.94753 48.4487 8.288 48.4487 8.6894C48.4487 9.09797 48.311 9.44561 48.0354 9.73232C47.7668 10.0119 47.4396 10.1516 47.0539 10.1516C46.6613 10.1516 46.3273 10.0119 46.0518 9.73232C45.7831 9.44561 45.6488 9.09797 45.6488 8.6894C45.6488 8.288 45.7831 7.94753 46.0518 7.66799C46.3273 7.38127 46.6613 7.23792 47.0539 7.23792Z" fill="white"/>
<path d="M50.6287 22.6559V7.23792H52.9327V22.6559H50.6287Z" fill="white"/>
<path d="M55.4226 22.6559V7.23792H57.7266V22.6559H55.4226Z" fill="white"/>
<path d="M69.1948 19.5917H69.9077C69.5013 20.6095 68.8642 21.4338 67.9963 22.0646C67.1354 22.6882 66.1539 23 65.0518 23C64.0875 23 63.2059 22.7563 62.4069 22.2689C61.6148 21.7743 60.9811 21.1149 60.5058 20.2906C60.0375 19.4591 59.8033 18.5416 59.8033 17.5381C59.8033 16.5346 60.0375 15.6207 60.5058 14.7964C60.9811 13.9649 61.6148 13.3055 62.4069 12.8181C63.2059 12.3235 64.0875 12.0762 65.0518 12.0762C66.0161 12.0762 66.8943 12.3235 67.6864 12.8181C68.4854 13.3055 69.1191 13.9649 69.5874 14.7964C70.0627 15.6207 70.3003 16.5346 70.3003 17.5381C70.3003 17.6528 70.2969 17.7675 70.29 17.8822H62.1176C62.1865 19.3086 62.5033 20.3766 63.0681 21.0862C63.6398 21.7886 64.3217 22.1757 65.1138 22.2474C65.224 22.2545 65.3308 22.2581 65.4341 22.2581C66.116 22.2581 66.8047 22.0431 67.5004 21.613C68.1961 21.183 68.7609 20.5092 69.1948 19.5917ZM62.1176 17.194H67.9757C67.9068 15.9325 67.5934 14.8788 67.0355 14.033C66.4845 13.1872 65.8232 12.7643 65.0518 12.7643C64.2735 12.7643 63.6088 13.1872 63.0578 14.033C62.5067 14.8788 62.1934 15.9325 62.1176 17.194Z" fill="white"/>
<path d="M84.1005 22.8982C85.497 22.8982 86.8089 22.5458 88.0362 21.8632C89.2846 21.1806 90.3002 20.2558 91.0831 19.1328L90.4483 18.7144C88.9883 20.8283 86.6608 22.1275 84.1428 22.1275C82.1962 22.1275 80.6939 21.4228 79.6359 20.0356C78.5991 18.6484 78.2394 16.9529 78.5779 14.9491C78.9165 12.9453 79.8263 11.2498 81.3287 9.86255C82.831 8.47531 84.566 7.77069 86.5339 7.77069C89.0095 7.77069 90.8715 9.0258 91.7814 11.0296L92.4585 10.6553C91.4428 8.43127 89.2846 7 86.555 7C84.4179 7 82.5347 7.74867 80.8631 9.246C79.1916 10.7433 78.1759 12.615 77.8162 14.839C77.4565 17.085 77.8585 19.0007 79.0434 20.5641C80.2495 22.1275 81.9211 22.8982 84.1005 22.8982Z" fill="white"/>
<path d="M95.8828 8.65147C96.7715 8.65147 96.962 7.26423 96.1156 7.26423C95.7136 7.26423 95.4385 7.50645 95.3327 7.96886C95.2692 8.32118 95.5231 8.65147 95.8828 8.65147ZM93.8938 22.6559L95.7559 11.6461H94.9941L93.1321 22.6559H93.8938Z" fill="white"/>
<path d="M100.16 8.65147C101.049 8.65147 101.239 7.26423 100.393 7.26423C99.9909 7.26423 99.7158 7.50645 99.61 7.96886C99.5465 8.32118 99.8005 8.65147 100.16 8.65147ZM98.1712 22.6559L100.033 11.6461H99.2715L97.4094 22.6559H98.1712Z" fill="white"/>
<path d="M106.469 22.8982C108.013 22.8982 109.389 22.3697 110.616 21.3348C111.864 20.2778 112.626 18.9126 112.901 17.2391C113.176 15.5876 112.88 14.2004 111.97 13.0774C111.06 11.9544 109.854 11.4039 108.352 11.4039C106.829 11.4039 105.432 11.9324 104.184 12.9893C102.935 14.0243 102.152 15.3895 101.877 17.063C101.581 18.7365 101.898 20.1237 102.808 21.2467C103.718 22.3477 104.945 22.8982 106.469 22.8982ZM106.532 22.1495C105.22 22.1715 104.184 21.7091 103.401 20.7623C102.639 19.8154 102.385 18.6043 102.618 17.151C102.872 15.6977 103.549 14.5087 104.628 13.5618C105.707 12.615 106.913 12.1526 108.246 12.1526C109.558 12.1526 110.595 12.615 111.378 13.5618C112.161 14.5087 112.415 15.6977 112.161 17.129C111.928 18.5823 111.251 19.7934 110.151 20.7402C109.071 21.6871 107.865 22.1495 106.532 22.1495Z" fill="white"/>
</g>
<defs>
<clipPath id="clip0_6016_5162">
<rect width="122" height="30" fill="white"/>
</clipPath>
</defs>
</svg>
